# xmcd
#
# Track frame offsets:
#	150
#	46608
#	48325
#	69420
#	91701
#	108017
#	127869
#	148668
#	166579
#	175731
#	189699
#	204793
#	218730
#
# Disc length: 3707 seconds
#
# Revision: 0
# Processed by: cddbd v1.5.2PL0 Copyright (c) Steve Scherf et al.
# Submitted via: EasyCDDAExtractor 2010.4.0.0
#
DISCID=9c0e790d
DTITLE=Not for us - Métodos en déjà vu
DYEAR=1999
DGENRE=metal
TTITLE0=Curriculum urbis
TTITLE1=Masacre verbal
TTITLE2=Aquarian
TTITLE3=Ego
TTITLE4=Violence
TTITLE5=Ignorance
TTITLE6=Fe
TTITLE7=Fiebre de odio
TTITLE8=Rutina
TTITLE9=No es un día más
TTITLE10=Grow
TTITLE11=Adiós
TTITLE12=Videoclip
EXTD=
EXTT0=
EXTT1=
EXTT2=
EXTT3=
EXTT4=
EXTT5=
EXTT6=
EXTT7=
EXTT8=
EXTT9=
EXTT10=
EXTT11=
EXTT12=
PLAYORDER=
